Coordinates
version=1
nRows=31
nColumns=24
inDegrees=yes

Units are S.I. units (second, meters, Newtons, ...)
Angles are in degrees.

endheader
time	pelvis_tilt	pelvis_list	pelvis_rotation	pelvis_tx	pelvis_ty	pelvis_tz	hip_flexion_r	hip_adduction_r	hip_rotation_r	knee_angle_r	ankle_angle_r	subtalar_angle_r	mtp_angle_r	hip_flexion_l	hip_adduction_l	hip_rotation_l	knee_angle_l	ankle_angle_l	subtalar_angle_l	mtp_angle_l	lumbar_extension	lumbar_bending	lumbar_rotation
39.99800000	4.84455933	-1.84559258	-0.77772078	0.60102028	1.04559875	-0.02160049	3.16067606	-2.90617367	-6.95037445	-15.42481204	7.34090725	-0.00000082	0.00000000	29.16091487	1.38076320	0.20135362	-66.83472954	-5.74306429	0.00000249	0.00000000	-19.54310531	-0.47001089	-4.72635202
40.00000000	4.84455933	-1.84559258	-0.77772078	0.60102028	1.04559875	-0.02160049	2.74056888	-2.90617367	-6.95037445	-15.07718043	7.31149233	-0.00000082	0.00000000	29.56322416	1.38076320	0.20135362	-66.31149279	-5.51440598	0.00000249	0.00000000	-19.54310531	-0.47001089	-4.72635202
40.00200000	4.84455933	-1.84559258	-0.77772078	0.60102028	1.04559875	-0.02160049	2.32399412	-2.90617367	-6.95037445	-14.73228838	7.27578862	-0.00000082	0.00000000	29.95514651	1.38076320	0.20135362	-65.76012977	-5.29707812	0.00000249	0.00000000	-19.54310531	-0.47001089	-4.72635202
40.00400000	4.84455933	-1.84559258	-0.77772078	0.60102028	1.04559875	-0.02160049	1.91000504	-2.90617367	-6.95037445	-14.39184765	7.23404028	-0.00000082	0.00000000	30.33791695	1.38076320	0.20135362	-65.18027003	-5.09037751	0.00000249	0.00000000	-19.54310531	-0.47001089	-4.72635202
40.00600000	4.84455933	-1.84559258	-0.77772078	0.60102028	1.04559875	-0.02160049	1.50069816	-2.90617367	-6.95037445	-14.05605091	7.18660185	-0.00000082	0.00000000	30.70960361	1.38076320	0.20135362	-64.57319726	-4.89386810	0.00000249	0.00000000	-19.54310531	-0.47001089	-4.72635202
40.00800000	4.84455933	-1.84559258	-0.77772078	0.60102028	1.04559875	-0.02160049	1.09557543	-2.90617367	-6.95037445	-13.72636835	7.13371523	-0.00000082	0.00000000	31.07128452	1.38076320	0.20135362	-63.93868096	-4.70686903	0.00000249	0.00000000	-19.54310531	-0.47001089	-4.72635202
40.01000000	4.84455933	-1.84559258	-0.77772078	0.60102028	1.04559875	-0.02160049	0.69393084	-2.90617367	-6.95037445	-13.40434532	7.07564416	-0.00000082	0.00000000	31.42244100	1.38076320	0.20135362	-63.27730102	-4.52881466	0.00000249	0.00000000	-19.54310531	-0.47001089	-4.72635202
40.01200000	4.84455933	-1.84559258	-0.77772078	0.60102028	1.04559875	-0.02160049	0.29780640	-2.90617367	-6.95037445	-13.09012329	7.01271383	-0.00000082	0.00000000	31.76151416	1.38076320	0.20135362	-62.59019268	-4.35913408	0.00000249	0.00000000	-19.54310531	-0.47001089	-4.72635202
40.01400000	4.84455933	-1.84559258	-0.77772078	0.60102028	1.04559875	-0.02160049	-0.09138332	-2.90617367	-6.95037445	-12.78410058	6.94521825	-0.00000082	0.00000000	32.08799049	1.38076320	0.20135362	-61.87798370	-4.19731537	0.00000249	0.00000000	-19.54310531	-0.47001089	-4.72635202
40.01600000	4.84455933	-1.84559258	-0.77772078	0.60102028	1.04559875	-0.02160049	-0.47527176	-2.90617367	-6.95037445	-12.48813691	6.87332262	-0.00000082	0.00000000	32.40267935	1.38076320	0.20135362	-61.14059252	-4.04262563	0.00000249	0.00000000	-19.54310531	-0.47001089	-4.72635202
40.01800000	4.84455933	-1.84559258	-0.77772078	0.60102028	1.04559875	-0.02160049	-0.85344592	-2.90617367	-6.95037445	-12.20299105	6.79726207	-0.00000082	0.00000000	32.70561515	1.38076320	0.20135362	-60.37837440	-3.89444287	0.00000249	0.00000000	-19.54310531	-0.47001089	-4.72635202
40.02000000	4.84455933	-1.84559258	-0.77772078	0.60102028	1.04559875	-0.02160049	-1.22557813	-2.90617367	-6.95037445	-11.92937519	6.71725722	-0.00000082	0.00000000	32.99650556	1.38076320	0.20135362	-59.59186939	-3.75219148	0.00000249	0.00000000	-19.54310531	-0.47001089	-4.72635202
40.02200000	4.84455933	-1.84559258	-0.77772078	0.60102028	1.04559875	-0.02160049	-1.59133193	-2.90617367	-6.95037445	-11.66790028	6.63354552	-0.00000082	0.00000000	33.27507454	1.38076320	0.20135362	-58.78162533	-3.61529084	0.00000249	0.00000000	-19.54310531	-0.47001089	-4.72635202
40.02400000	4.84455933	-1.84559258	-0.77772078	0.60102028	1.04559875	-0.02160049	-1.95015716	-2.90617367	-6.95037445	-11.41896330	6.54635824	-0.00000082	0.00000000	33.54045679	1.38076320	0.20135362	-57.94851848	-3.48321762	0.00000249	0.00000000	-19.54310531	-0.47001089	-4.72635202
40.02600000	4.84455933	-1.84559258	-0.77772078	0.60102028	1.04559875	-0.02160049	-2.30317746	-2.90617367	-6.95037445	-11.18368275	6.45574242	-0.00000082	0.00000000	33.79471695	1.38076320	0.20135362	-57.09194770	-3.35551999	0.00000249	0.00000000	-19.54310531	-0.47001089	-4.72635202
40.02800000	4.84455933	-1.84559258	-0.77772078	0.60102028	1.04559875	-0.02160049	-2.64977514	-2.90617367	-6.95037445	-10.96218145	6.36191416	-0.00000082	0.00000000	34.03650206	1.38076320	0.20135362	-56.21310057	-3.23181584	0.00000249	0.00000000	-19.54310531	-0.47001089	-4.72635202
40.03000000	4.84455933	-1.84559258	-0.77772078	0.60102028	1.04559875	-0.02160049	-2.98948330	-2.90617367	-6.95037445	-10.75453691	6.26508720	-0.00000082	0.00000000	34.26550914	1.38076320	0.20135362	-55.31264860	-3.11161153	0.00000249	0.00000000	-19.54310531	-0.47001089	-4.72635202
40.03200000	4.84455933	-1.84559258	-0.77772078	0.60102028	1.04559875	-0.02160049	-3.32333523	-2.90617367	-6.95037445	-10.56144085	6.16529915	-0.00000082	0.00000000	34.48269479	1.38076320	0.20135362	-54.39064218	-2.99461658	0.00000249	0.00000000	-19.54310531	-0.47001089	-4.72635202
40.03400000	4.84455933	-1.84559258	-0.77772078	0.60102028	1.04559875	-0.02160049	-3.65151802	-2.90617367	-6.95037445	-10.38303025	6.06265022	-0.00000082	0.00000000	34.68797115	1.38076320	0.20135362	-53.44769501	-2.88059311	0.00000249	0.00000000	-19.54310531	-0.47001089	-4.72635202
40.03600000	4.84455933	-1.84559258	-0.77772078	0.60102028	1.04559875	-0.02160049	-3.97366783	-2.90617367	-6.95037445	-10.21903770	5.95725370	-0.00000082	0.00000000	34.88048867	1.38076320	0.20135362	-52.48483274	-2.76939194	0.00000249	0.00000000	-19.54310531	-0.47001089	-4.72635202
40.03800000	4.84455933	-1.84559258	-0.77772078	0.60102028	1.04559875	-0.02160049	-4.28974774	-2.90617367	-6.95037445	-10.06923359	5.84918044	-0.00000082	0.00000000	35.05966382	1.38076320	0.20135362	-51.50296535	-2.66095137	0.00000249	0.00000000	-19.54310531	-0.47001089	-4.72635202
40.04000000	4.84455933	-1.84559258	-0.77772078	0.60102028	1.04559875	-0.02160049	-4.59981049	-2.90617367	-6.95037445	-9.93331380	5.73848427	-0.00000082	0.00000000	35.22533768	1.38076320	0.20135362	-50.50282452	-2.55520716	0.00000249	0.00000000	-19.54310531	-0.47001089	-4.72635202
40.04200000	4.84455933	-1.84559258	-0.77772078	0.60102028	1.04559875	-0.02160049	-4.90434699	-2.90617367	-6.95037445	-9.81107926	5.62519810	-0.00000082	0.00000000	35.37834161	1.38076320	0.20135362	-49.48468537	-2.45210049	0.00000249	0.00000000	-19.54310531	-0.47001089	-4.72635202
40.04400000	4.84455933	-1.84559258	-0.77772078	0.60102028	1.04559875	-0.02160049	-5.20346631	-2.90617367	-6.95037445	-9.70203803	5.50932988	-0.00000082	0.00000000	35.51832831	1.38076320	0.20135362	-48.44947878	-2.35170532	0.00000249	0.00000000	-19.54310531	-0.47001089	-4.72635202
40.04600000	4.84455933	-1.84559258	-0.77772078	0.60102028	1.04559875	-0.02160049	-5.49784926	-2.90617367	-6.95037445	-9.60589232	5.39087696	-0.00000082	0.00000000	35.64600000	1.38076320	0.20135362	-47.39767114	-2.25405239	0.00000249	0.00000000	-19.54310531	-0.47001089	-4.72635202
40.04800000	4.84455933	-1.84559258	-0.77772078	0.60102028	1.04559875	-0.02160049	-5.78752944	-2.90617367	-6.95037445	-9.52193917	5.26982879	-0.00000082	0.00000000	35.76104354	1.38076320	0.20135362	-46.33033938	-2.15930875	0.00000249	0.00000000	-19.54310531	-0.47001089	-4.72635202
40.05000000	4.84455933	-1.84559258	-0.77772078	0.60102028	1.04559875	-0.02160049	-6.07314135	-2.90617367	-6.95037445	-9.44971235	5.14615810	-0.00000082	0.00000000	35.86415920	1.38076320	0.20135362	-45.24814681	-2.06756914	0.00000249	0.00000000	-19.54310531	-0.47001089	-4.72635202
40.05200000	4.84455933	-1.84559258	-0.77772078	0.60102028	1.04559875	-0.02160049	-6.35472104	-2.90617367	-6.95037445	-9.38839587	5.01983945	-0.00000082	0.00000000	35.95484125	1.38076320	0.20135362	-44.15248159	-1.97907343	0.00000249	0.00000000	-19.54310531	-0.47001089	-4.72635202
40.05400000	4.84455933	-1.84559258	-0.77772078	0.60102028	1.04559875	-0.02160049	-6.63277089	-2.90617367	-6.95037445	-9.33737579	4.89082495	-0.00000082	0.00000000	36.03359097	1.38076320	0.20135362	-43.04435496	-1.89396157	0.00000249	0.00000000	-19.54310531	-0.47001089	-4.72635202
40.05600000	4.84455933	-1.84559258	-0.77772078	0.60102028	1.04559875	-0.02160049	-6.90833798	-2.90617367	-6.95037445	-9.29629479	4.75902407	-0.00000082	0.00000000	36.10199868	1.38076320	0.20135362	-41.92436006	-1.81238008	0.00000249	0.00000000	-19.54310531	-0.47001089	-4.72635202
40.05800000	4.84455933	-1.84559258	-0.77772078	0.60102028	1.04559875	-0.02160049	-7.18149123	-2.90617367	-6.95037445	-9.26431201	4.62438005	-0.00000082	0.00000000	36.15789554	1.38076320	0.20135362	-40.79515316	-1.73455712	0.00000249	0.00000000	-19.54310531	-0.47001089	-4.72635202
